# xmcd CD database file
#
# Track frame offsets:
#	150
#	12274
#	23855
#	36368
#	47462
#	58905
#	69624
#	79353
#	90449
#	102714
#	114480
#	124708
#	137627
#	147262
#	163018
#	174324
#	187216
#	197500
#	208594
#	218921
#
# Disc length: 3091 seconds
#
# Revision: 1
# Processed by: cddbd v1.5.2PL0 Copyright (c) Steve Scherf et al.
# Submitted via: CDex 1.51
#
DISCID=260c1114
DTITLE=John Lee Hooker - The Best Of
DYEAR=1900
DGENRE=
TTITLE0=I'm In The Mood
TTITLE1=Boogie Chillun
TTITLE2=Hobo Blues
TTITLE3=Boom, Boom
TTITLE4=I Love You Honey
TTITLE5=No Shoes
TTITLE6=Dimples
TTITLE7=This Is Hip
TTITLE8=Crawlin' Kingsnake
TTITLE9=I'm Mad Again
TTITLE10=Big Legs, Tight Skirt
TTITLE11=I'm Going Upstairs
TTITLE12=Onions
TTITLE13=It Serves Me Right (To Suffer)
TTITLE14=Will The Circle Be Unbroken
TTITLE15=I'm So Excited
TTITLE16=Maudie
TTITLE17=What Do You Say
TTITLE18=She's Mine (Keep Your Hands To Yourself)
TTITLE19=Don't Look Back
EXTD=Duration: 51:29\nYear: 2000\n
EXTT0=
EXTT1=
EXTT2=
EXTT3=
EXTT4=
EXTT5=
EXTT6=
EXTT7=
EXTT8=
EXTT9=
EXTT10=
EXTT11=
EXTT12=
EXTT13=
EXTT14=
EXTT15=
EXTT16=
EXTT17=
EXTT18=
EXTT19=
PLAYORDER=
